<?xml version="1.0" standalone="no"?>
<!DOCTYPE svg PUBLIC "-//W3C//DTD SVG 20010904//EN"
 "http://www.w3.org/TR/2001/REC-SVG-20010904/DTD/svg10.dtd">
<svg version="1.0" xmlns="http://www.w3.org/2000/svg"
 width="630.000000pt" height="355.000000pt" viewBox="0 0 630.000000 355.000000"
 preserveAspectRatio="xMidYMid meet">

<g transform="translate(0.000000,355.000000) scale(0.100000,-0.100000)"
fill="#000000" stroke="none">
<path d="M3420 2983 c-31 -18 -112 -103 -256 -267 l-211 -241 33 -42 c19 -23
34 -44 34 -47 0 -3 -17 -14 -38 -25 l-38 -19 -172 154 -171 155 -53 -27 c-29
-15 -58 -34 -65 -43 -10 -14 -12 -10 -13 22 0 32 -3 37 -17 33 -315 -96 -550
-175 -594 -199 l-56 -30 4 -66 c13 -226 14 -232 31 -227 10 2 32 7 50 11 31 6
32 6 32 -27 l0 -33 -47 3 c-64 5 -169 -21 -244 -58 l-60 -31 6 58 c23 198
-111 394 -325 478 -168 66 -435 58 -677 -21 -138 -45 -411 -187 -457 -238 -6
-7 -24 -26 -40 -44 l-29 -31 128 -218 c71 -120 132 -223 137 -230 7 -8 22 -6
59 9 27 12 51 19 53 17 2 -2 47 -103 99 -224 284 -653 337 -770 346 -773 5 -2
103 27 218 63 179 58 238 84 301 131 3 2 -64 269 -76 304 -3 8 21 -13 52 -47
83 -90 161 -127 281 -131 72 -3 103 0 154 18 62 21 162 77 175 99 15 24 23 7
29 -60 3 -39 8 -74 11 -76 3 -3 92 7 198 22 165 24 201 32 246 57 l52 29 0
118 c0 65 3 120 6 124 3 3 169 -75 367 -175 l361 -180 53 28 53 29 0 171 0
171 55 12 c30 7 81 25 112 41 32 16 59 27 61 25 2 -1 -3 -43 -12 -91 -8 -49
-14 -89 -13 -90 1 0 103 -17 226 -38 l224 -36 34 20 c19 11 38 20 43 20 6 0
24 -28 41 -63 17 -34 32 -63 34 -65 1 -1 18 4 38 13 l36 15 6 -43 7 -43 254
-46 254 -46 50 27 50 26 -3 65 -2 64 40 7 c22 4 53 12 69 18 16 7 30 10 31 9
1 -2 -2 -40 -7 -86 -6 -46 -8 -85 -7 -87 2 -2 69 -13 149 -24 212 -31 190 -20
190 -101 0 -39 2 -70 5 -70 2 0 81 -24 174 -54 l170 -55 54 30 55 29 230 691
c156 467 227 691 219 694 -7 2 -113 30 -237 60 -217 54 -226 56 -258 41 -42
-21 -52 -20 -52 3 0 10 -6 23 -12 28 -7 6 -136 37 -285 70 l-273 61 -50 -27
-50 -26 0 -141 0 -140 -77 -12 c-50 -8 -103 -25 -147 -47 -38 -19 -70 -34 -71
-32 -2 2 -48 304 -69 447 l-11 75 -187 3 -188 2 -60 -30 c-58 -29 -63 -30
-206 -30 -141 0 -149 -1 -193 -26 -25 -15 -47 -28 -49 -29 -1 -1 -7 -29 -13
-62 l-11 -60 -63 42 c-70 47 -140 74 -219 84 l-51 6 162 88 c139 75 162 91
153 105 -31 56 -217 326 -225 328 -5 2 -30 -9 -55 -23z m100 -215 c63 -86 75
-70 -134 -174 -131 -65 -152 -72 -165 -60 -12 13 -2 30 84 133 114 135 147
173 156 173 4 0 30 -32 59 -72z m-1154 -503 l6 -139 20 24 c11 14 62 84 114
155 51 72 102 140 111 152 l18 21 119 -114 119 -115 -54 -57 c-30 -31 -108
-112 -173 -179 -66 -68 -117 -125 -114 -128 3 -3 76 -34 161 -68 155 -62 157
-63 196 -117 67 -92 177 -161 291 -183 l60 -12 0 -107 c0 -60 -3 -108 -7 -108
-4 0 -186 90 -404 200 -219 110 -402 200 -408 200 -8 0 -11 -66 -11 -209 0
-116 -4 -212 -8 -215 -12 -7 -192 -30 -197 -25 -2 3 -5 45 -6 94 -3 82 0 96
26 155 27 59 30 74 30 175 0 103 -2 114 -32 175 -17 36 -42 77 -55 92 -23 25
-25 40 -37 208 l-14 182 -23 -6 c-13 -3 -36 -9 -50 -12 -24 -6 -25 -5 -22 36
l3 43 160 47 160 47 7 -36 c4 -20 10 -99 14 -176z m2169 193 c2 -13 20 -125
39 -251 l34 -227 -42 -63 c-114 -171 -112 -369 6 -519 24 -31 99 -90 128 -100
5 -2 12 -16 16 -32 7 -28 6 -28 -32 -23 -22 4 -79 11 -129 18 -49 7 -95 17
-101 23 -7 6 -26 115 -44 241 -18 127 -36 234 -40 238 -4 4 -28 -49 -55 -118
-26 -69 -50 -125 -52 -125 -4 0 -110 220 -139 290 -21 49 -26 35 -59 -177
l-29 -182 -25 4 c-98 16 -226 38 -229 40 -1 1 5 49 15 106 l17 104 60 63 61
64 -43 37 -43 36 36 210 c19 116 41 234 47 263 l11 52 123 0 c68 0 125 -4 129
-10 3 -5 19 -85 36 -177 17 -92 33 -170 35 -172 6 -6 11 17 34 149 12 69 28
155 36 193 l16 67 89 0 c84 0 89 -1 94 -22z m-3455 -23 c211 -22 380 -178 380
-351 0 -164 -118 -352 -301 -483 l-47 -33 69 -266 c38 -146 67 -267 66 -269
-10 -9 -213 -70 -218 -64 -3 3 -109 239 -234 523 l-229 516 -58 -29 -57 -29
-69 118 c-98 166 -97 163 -81 174 33 22 199 103 255 124 92 34 219 65 309 74
78 7 104 7 215 -5z m2408 -83 c60 -19 131 -62 166 -100 18 -21 18 -22 -10 -55
-16 -19 -94 -103 -174 -187 l-145 -153 63 5 c65 6 133 38 180 85 27 27 22 30
133 -70 l64 -59 -49 -44 c-133 -117 -376 -182 -531 -140 -225 60 -334 286
-239 497 80 177 340 283 542 221z m1912 -43 c85 -17 157 -35 160 -39 3 -5 32
-137 64 -295 33 -157 63 -280 66 -273 4 7 33 119 64 248 31 129 60 241 65 249
7 11 30 8 127 -13 66 -15 124 -28 131 -31 8 -3 -53 -198 -184 -592 -108 -323
-197 -589 -197 -590 -1 -2 -43 9 -93 24 -72 21 -93 31 -97 47 -3 12 -6 102 -6
201 0 245 -12 507 -21 473 -4 -15 -26 -134 -49 -265 -23 -131 -46 -242 -51
-247 -4 -5 -48 -3 -104 4 l-97 13 7 75 c7 73 9 78 57 132 95 107 147 251 133
376 -7 67 -46 160 -89 211 -26 31 -26 34 -20 127 l7 95 -37 6 c-36 7 -36 8
-36 57 0 47 1 50 23 45 12 -3 92 -20 177 -38z m-270 -297 c172 -86 197 -319
51 -497 -192 -236 -533 -188 -592 84 -22 104 21 222 116 317 128 129 287 165
425 96z m-2321 -104 l1 -26 -45 17 c-24 9 -47 20 -51 24 -4 4 12 28 37 53 l44
45 7 -43 c3 -24 7 -55 7 -70z m-816 40 c66 -29 133 -105 153 -176 25 -84 15
-173 -28 -265 -142 -298 -532 -344 -653 -76 -24 54 -27 71 -23 142 4 107 44
196 121 270 128 125 291 165 430 105z"/>
<path d="M1000 2113 c-25 -9 -46 -16 -47 -17 -7 -6 117 -396 126 -396 11 0 57
35 104 79 120 112 111 274 -18 332 -48 22 -104 23 -165 2z m128 -126 c16 -15
22 -32 22 -64 0 -30 4 -42 11 -37 16 9 -6 -29 -25 -45 -18 -15 -14 -23 -50 91
-13 42 -21 79 -19 82 8 7 36 -5 61 -27z"/>
<path d="M3225 2202 c-124 -58 -160 -213 -72 -309 11 -13 26 -23 32 -23 10 0
146 147 241 260 l25 29 -39 26 c-54 35 -133 43 -187 17z m95 -89 c0 -5 -29
-41 -65 -81 l-65 -73 -11 28 c-13 36 -4 84 22 111 15 17 31 22 69 22 28 0 50
-3 50 -7z"/>
<path d="M4875 1961 c-81 -38 -116 -102 -101 -186 8 -43 59 -103 103 -121 42
-18 115 -18 157 0 71 29 115 126 94 201 -11 37 -12 38 -16 13 -2 -15 -17 -41
-33 -58 -25 -24 -39 -30 -76 -30 -38 0 -50 5 -79 34 -54 54 -42 111 31 149
l30 16 -35 0 c-19 0 -53 -8 -75 -18z"/>
<path d="M1771 1887 c-47 -15 -97 -65 -111 -113 -31 -105 57 -214 174 -214 56
0 93 14 130 48 53 50 70 125 41 187 l-13 30 -2 -30 c-2 -79 -99 -121 -170 -72
-66 44 -60 125 12 160 l33 17 -30 -1 c-16 -1 -45 -6 -64 -12z"/>
</g>
</svg>
