<?xml version="1.0" standalone="no"?>
<!DOCTYPE svg PUBLIC "-//W3C//DTD SVG 20010904//EN"
 "http://www.w3.org/TR/2001/REC-SVG-20010904/DTD/svg10.dtd">
<svg version="1.0" xmlns="http://www.w3.org/2000/svg"
 width="1046.000000pt" height="1024.000000pt" viewBox="0 0 1046.000000 1024.000000"
 preserveAspectRatio="xMidYMid meet">

<g transform="translate(0.000000,1024.000000) scale(0.100000,-0.100000)"
fill="#000000" stroke="none">
<path d="M4985 9860 c-444 -25 -951 -124 -1355 -265 -580 -203 -1111 -504
-1559 -884 -409 -348 -759 -758 -1030 -1209 -65 -108 -221 -409 -261 -502 -13
-30 -39 -91 -57 -135 -34 -80 -134 -368 -173 -500 -42 -142 -102 -436 -131
-640 -111 -799 -13 -1614 288 -2385 51 -130 213 -469 275 -575 181 -307 326
-513 523 -745 110 -128 375 -397 505 -511 145 -127 417 -333 530 -402 25 -15
74 -46 110 -69 181 -115 567 -312 713 -364 20 -7 52 -20 70 -28 125 -58 439
-156 732 -228 123 -30 483 -83 670 -99 182 -16 649 -16 840 0 203 17 554 74
755 123 562 137 1092 369 1570 688 178 118 432 317 564 440 197 183 456 460
561 601 11 14 40 53 65 85 227 299 491 766 597 1059 14 39 29 75 33 80 23 32
152 446 186 595 130 581 158 1118 88 1680 -22 177 -42 303 -64 395 -10 44 -26
112 -35 150 -36 160 -103 370 -191 595 -188 482 -442 907 -792 1324 -188 223
-535 554 -767 732 -86 65 -355 245 -475 316 -190 114 -519 275 -690 338 -19 7
-48 19 -65 26 -62 27 -235 84 -390 128 -303 85 -636 146 -960 175 -163 15
-509 20 -680 11z m2220 -965 c133 -24 246 -54 330 -87 103 -40 374 -174 400
-197 11 -10 29 -23 40 -29 49 -25 220 -159 309 -242 100 -92 275 -279 322
-341 10 -15 44 -60 75 -100 249 -331 440 -717 505 -1019 25 -117 29 -299 10
-400 -75 -399 -461 -536 -957 -340 -322 128 -670 396 -970 746 -48 56 -184
238 -230 309 -25 39 -62 95 -81 125 -51 78 -152 275 -208 405 -133 312 -201
641 -171 832 30 194 113 290 291 337 71 19 234 20 335 1z m1801 -3024 c23 -10
54 -36 70 -56 38 -50 46 -153 16 -201 -23 -37 -84 -68 -132 -68 -53 0 -127 40
-158 86 -38 58 -42 140 -10 188 45 67 132 88 214 51z m-4126 -817 c249 -47
493 -201 629 -399 92 -132 147 -268 176 -435 32 -184 4 -373 -84 -565 -141
-305 -426 -517 -761 -566 -295 -43 -608 62 -826 276 -141 139 -225 286 -275
481 -29 115 -32 317 -5 439 33 148 110 307 210 430 130 161 368 300 581 340
97 18 257 18 355 -1z m5160 -361 c0 -28 -32 -285 -51 -403 -5 -36 -18 -101
-29 -145 -10 -44 -28 -119 -39 -166 -35 -149 -131 -453 -175 -554 -7 -16 -19
-46 -26 -65 -53 -142 -222 -492 -271 -562 -11 -14 -19 -29 -19 -31 0 -11 -114
-194 -188 -302 -67 -98 -202 -279 -257 -344 -187 -223 -324 -362 -535 -545
-393 -340 -726 -552 -1225 -781 -345 -159 -816 -295 -1244 -360 -280 -43 -443
-55 -726 -55 -408 0 -778 44 -1146 135 -591 148 -1095 370 -1578 696 -139 94
-148 100 -256 184 -43 33 -90 69 -104 79 -52 39 -179 154 -300 271 -222 215
-439 474 -612 730 -69 101 -97 146 -201 320 -44 74 -177 339 -213 426 -153
366 -215 559 -286 884 -38 172 -69 352 -69 395 0 17 9 14 76 -28 41 -26 103
-64 137 -86 277 -172 809 -385 1277 -511 270 -72 756 -173 985 -205 144 -20
130 -9 166 -118 114 -348 327 -628 639 -843 179 -124 369 -202 620 -255 121
-26 486 -26 615 -1 387 77 721 272 963 562 133 159 210 293 277 480 26 72 37
91 56 97 13 4 103 16 199 27 209 25 452 61 610 90 319 59 387 73 535 105 207
44 459 104 510 121 22 8 69 21 105 30 157 40 591 182 785 257 320 124 728 327
925 460 30 20 58 37 63 37 4 1 7 -11 7 -26z"/>
<path d="M4500 4632 c-182 -49 -329 -183 -401 -365 -31 -76 -33 -91 -33 -202
-1 -132 16 -201 73 -300 148 -255 480 -368 757 -259 84 34 104 45 173 103 74
62 134 146 172 244 31 77 33 89 33 207 0 118 -2 130 -32 206 -68 172 -197 297
-364 355 -88 31 -285 37 -378 11z m351 -80 c132 -47 236 -138 297 -258 81
-160 81 -308 0 -468 -77 -153 -227 -259 -407 -287 -240 -37 -492 116 -578 351
-80 215 6 472 200 597 108 70 197 94 327 89 71 -2 123 -10 161 -24z"/>
</g>
</svg>
